<svg width="100" height="100" viewBox="0 0 100 100" xmlns="http://www.w3.org/2000/svg">
  <defs>
    <pattern id="hearts" width="50" height="50" patternUnits="userSpaceOnUse">
      <path d="M25,18 C20,13 10,13 10,23 C10,33 25,38 25,38 C25,38 40,33 40,23 C40,13 30,13 25,18" fill="rgba(255, 182, 193, 0.3)" />
      <path d="M10,43 C7,40 2,40 2,45 C2,50 10,53 10,53 C10,53 18,50 18,45 C18,40 13,40 10,43" fill="rgba(255, 192, 203, 0.2)" />
      <path d="M40,43 C37,40 32,40 32,45 C32,50 40,53 40,53 C40,53 48,50 48,45 C48,40 43,40 40,43" fill="rgba(255, 182, 193, 0.25)" />
    </pattern>
  </defs>
  <rect width="100%" height="100%" fill="url(#hearts)" />
</svg>